<svg width="30" height="30" viewBox="0 0 30 30" fill="none" xmlns="http://www.w3.org/2000/svg">
<path d="M9.05 2.5H6.675C3.9375 2.5 2.5 3.9375 2.5 6.6625V9.0375C2.5 11.7625 3.9375 13.2 6.6625 13.2H9.0375C11.7625 13.2 13.2 11.7625 13.2 9.0375V6.6625C13.2125 3.9375 11.775 2.5 9.05 2.5Z" fill="white"/>
<path d="M23.3375 2.5H20.9626C18.2375 2.5 16.8 3.9375 16.8 6.6625V9.0375C16.8 11.7625 18.2375 13.2 20.9626 13.2H23.3375C26.0625 13.2 27.5 11.7625 27.5 9.0375V6.6625C27.5 3.9375 26.0625 2.5 23.3375 2.5Z" fill="white"/>
<path d="M23.3375 16.7876H20.9626C18.2375 16.7876 16.8 18.2251 16.8 20.9501V23.3251C16.8 26.0501 18.2375 27.4876 20.9626 27.4876H23.3375C26.0625 27.4876 27.5 26.0501 27.5 23.3251V20.9501C27.5 18.2251 26.0625 16.7876 23.3375 16.7876Z" fill="white"/>
<path d="M9.05 16.7876H6.675C3.9375 16.7876 2.5 18.2251 2.5 20.9501V23.3251C2.5 26.0626 3.9375 27.5001 6.6625 27.5001H9.0375C11.7625 27.5001 13.2 26.0626 13.2 23.3376V20.9626C13.2125 18.2251 11.775 16.7876 9.05 16.7876Z" fill="white"/>
</svg>
