<svg version="1.1" id="Layer_1" xmlns="http://www.w3.org/2000/svg" xmlns:xlink="http://www.w3.org/1999/xlink" x="0px" y="0px"
	 width="100%" viewBox="0 0 368 203" enable-background="new 0 0 368 203" xml:space="preserve">
<path fill="#000000" opacity="1.000000" stroke="none" 
	d="
M242.000000,204.000000 
	C161.333344,204.000000 81.166687,204.000000 1.000021,204.000000 
	C1.000014,136.333344 1.000014,68.666702 1.000007,1.000040 
	C123.666634,1.000026 246.333267,1.000026 368.999939,1.000013 
	C368.999939,68.666626 368.999939,136.333252 368.999969,203.999939 
	C326.833344,204.000000 284.666656,204.000000 242.000000,204.000000 
M83.576653,78.982262 
	C83.335350,78.924629 83.094048,78.866989 82.473289,78.272652 
	C80.353981,76.455025 78.234673,74.637398 76.245659,72.931511 
	C78.839241,71.001434 81.464844,69.047531 84.841629,67.032997 
	C90.240746,63.727867 95.639854,60.422733 101.804787,57.028992 
	C107.562485,53.733795 113.320175,50.438599 119.856491,47.039314 
	C119.859573,45.688004 120.392159,43.502331 119.782990,43.115738 
	C114.295204,39.633038 108.607132,36.465927 102.343102,32.881775 
	C96.573555,29.554825 90.804001,26.227875 84.790619,22.243345 
	C81.565033,20.454920 78.339455,18.666494 74.962189,16.369480 
	C74.669739,16.182011 74.377281,15.994541 73.690498,15.125445 
	C67.476059,14.674499 63.203320,18.211674 58.705280,22.738630 
	C47.086269,29.507565 35.467262,36.276497 23.465174,43.079628 
	C23.465174,43.079628 23.120985,43.251251 22.291759,43.368023 
	C21.862148,45.178291 21.061882,46.987743 21.057871,48.798954 
	C20.983820,82.227173 21.119499,115.656342 20.904800,149.083344 
	C20.864063,155.425919 20.756666,160.641022 28.335606,163.162186 
	C33.514580,164.884979 38.088253,168.427399 43.222046,171.800751 
	C43.917751,172.159760 44.617317,172.511505 45.308544,172.878937 
	C50.526539,175.652679 55.742893,178.429520 61.202801,181.857529 
	C63.886269,183.489334 66.472328,185.338593 69.316139,186.612427 
	C70.107147,186.966721 71.661469,185.616943 72.985901,184.112228 
	C72.942757,166.742050 72.899612,149.371872 73.031952,131.281219 
	C76.022049,129.388031 79.116440,127.636528 81.959717,125.543854 
	C83.456810,124.441994 84.515236,122.744133 86.497849,121.052544 
	C93.734192,116.938057 100.970543,112.823563 108.735786,108.241417 
	C111.985405,107.135391 115.378075,106.313820 118.415642,104.786163 
	C119.666115,104.157280 120.915756,101.923920 120.765160,100.576950 
	C120.623459,99.309570 118.783150,98.005623 117.410637,97.185616 
	C116.560837,96.677910 115.189339,97.043404 113.769089,96.358604 
	C110.544128,94.577507 107.319168,92.796410 104.045044,90.262550 
	C99.004166,87.566582 93.963295,84.870605 88.324112,81.806847 
	C87.477547,81.476303 86.630981,81.145760 85.601326,80.407875 
	C85.157936,80.021873 84.714554,79.635872 83.576653,78.982262 
M271.200745,171.783508 
	C275.900299,174.787186 280.583496,177.817535 285.337067,180.733185 
	C285.646393,180.922928 286.495972,180.231796 287.725769,180.226501 
	C289.536682,181.163223 291.347565,182.099930 293.200073,183.793243 
	C293.727936,184.507050 294.102020,185.559845 294.808350,185.880203 
	C299.770294,188.130737 307.989075,184.596329 311.591370,178.943954 
	C311.836761,178.855301 312.082123,178.766647 312.813446,178.191040 
	C321.902771,175.499130 329.788055,170.581604 337.909302,164.723007 
	C341.189941,162.777817 344.470551,160.832626 348.671295,158.778397 
	C348.769562,139.608551 348.874695,120.438728 348.915924,101.268761 
	C348.916748,100.892601 348.167694,100.514824 347.091675,99.964020 
	C341.572205,96.603561 336.120178,93.125565 330.518097,89.908997 
	C321.093475,84.497627 311.573486,79.252342 302.019989,73.241867 
	C303.326050,72.230499 304.632111,71.219131 306.700714,70.029076 
	C313.921051,66.076050 321.157379,62.151402 328.328674,58.111320 
	C328.852142,57.816410 328.904510,56.685253 329.875885,55.993488 
	C332.170258,54.609085 334.464630,53.224682 337.564575,52.019543 
	C341.570160,50.053432 345.575775,48.087326 349.581360,46.121216 
	C349.463806,45.491459 349.346252,44.861702 349.228729,44.231945 
	C347.183197,43.169373 345.137665,42.106804 342.831879,40.359711 
	C336.635864,36.928383 330.439819,33.497055 324.044647,29.313944 
	C319.322571,26.938850 314.600464,24.563757 309.279816,21.820108 
	C305.213623,19.947889 301.147430,18.075670 296.323883,16.068272 
	C291.941376,18.769939 287.558838,21.471607 283.020447,24.490976 
	C283.020447,24.490976 283.060791,24.842550 282.555359,25.007793 
	C282.381989,24.973444 282.208649,24.939093 281.759338,24.299835 
	C273.573090,28.963825 265.309845,33.499893 257.240601,38.358208 
	C254.243271,40.162823 251.700592,42.722588 248.168045,45.345161 
	C248.113098,63.262314 248.047699,81.179466 248.043839,99.096619 
	C248.043701,99.769585 248.641037,100.442673 248.962769,101.848305 
	C250.816483,103.258255 252.520401,104.955345 254.555710,106.017220 
	C258.552612,108.102478 262.733856,109.834358 267.501892,112.034119 
	C273.987488,116.020844 280.473114,120.007561 287.219177,124.669296 
	C289.468597,126.046173 291.718018,127.423050 294.516144,129.135788 
	C290.129333,131.692947 286.028534,133.953247 282.060974,136.427292 
	C276.388458,139.964478 270.813416,143.658020 264.697571,147.768051 
	C260.915131,149.940964 257.081451,152.031403 253.378815,154.332672 
	C252.125458,155.111694 251.203522,156.423981 250.130142,157.492584 
	C251.333725,158.633438 252.537323,159.774292 254.030243,161.594513 
	C259.668121,164.773651 265.306000,167.952774 271.200745,171.783508 
M229.334747,102.288795 
	C228.225418,102.355194 226.851776,102.021439 226.048889,102.551781 
	C220.046463,106.516663 214.156860,110.652397 207.494003,114.960487 
	C201.651108,118.385567 195.808197,121.810638 189.093185,125.067688 
	C188.395844,123.760437 187.110718,122.461739 187.091553,121.144623 
	C186.887039,107.088577 186.883072,93.029617 186.985001,78.051376 
	C186.933502,59.712292 186.882004,41.373207 186.992599,22.181980 
	C187.040863,15.428445 185.063095,14.074466 179.171967,17.383900 
	C164.981491,25.355618 150.890457,33.505611 136.831558,41.707523 
	C135.873245,42.266598 135.514572,43.853474 134.360840,45.136517 
	C134.530670,45.749630 134.700500,46.362743 134.117294,47.413754 
	C134.078308,82.780151 134.033066,118.146545 134.038132,153.512939 
	C134.038254,154.357635 134.600769,155.202286 134.986511,156.853973 
	C135.085556,157.812759 134.873947,159.408218 135.331787,159.631622 
	C139.803192,161.813278 144.386383,163.765854 149.571121,166.086411 
	C151.674271,167.384720 153.777420,168.683029 156.138626,170.648209 
	C164.728607,175.762405 173.296875,180.913986 181.939728,185.937210 
	C182.879547,186.483429 185.003143,188.850479 185.769745,184.978333 
	C188.459000,183.863373 191.297501,183.012161 193.812347,181.588989 
	C206.498047,174.410049 219.099426,167.082123 232.616165,159.941910 
	C233.410934,158.277649 234.862244,156.627777 234.899048,154.946915 
	C235.271439,137.930023 235.442932,120.908234 235.532684,103.887085 
	C235.537354,103.003311 234.291473,102.112938 232.965714,101.069725 
	C231.958771,101.389275 230.951843,101.708832 229.334747,102.288795 
z"/>
<path fill="#FB7B1C" opacity="1.000000" stroke="none" 
	d="
M231.730377,159.806458 
	C219.099426,167.082123 206.498047,174.410049 193.812347,181.588989 
	C191.297501,183.012161 188.459000,183.863373 185.068619,184.958008 
	C183.631210,184.472855 182.894928,184.008011 182.601044,183.382797 
	C183.695267,181.691101 184.898804,180.164978 184.913376,178.627579 
	C185.055420,163.649796 185.021393,148.670029 184.956451,133.691177 
	C184.951096,132.457703 184.351196,131.226791 184.027161,129.679489 
	C184.028427,128.945251 184.030075,128.526199 184.221893,128.097076 
	C184.412079,128.086990 184.791183,128.050125 185.179749,128.128632 
	C186.350250,128.098328 187.132187,127.989540 187.942902,128.258453 
	C189.540939,130.372253 190.805481,132.623123 192.728546,133.761627 
	C206.048035,141.647034 219.504578,149.300964 232.818909,157.316895 
	C232.390594,158.338531 232.060486,159.072495 231.730377,159.806458 
z"/>
<path fill="#2B21DB" opacity="1.000000" stroke="none" 
	d="
M293.158478,183.036636 
	C291.347565,182.099930 289.536682,181.163223 287.117676,179.915802 
	C281.339172,176.412064 276.168793,173.219025 270.776428,169.773209 
	C264.949951,166.651993 259.345428,163.783554 253.740921,160.915131 
	C252.537323,159.774292 251.333725,158.633438 250.130142,157.492584 
	C251.203522,156.423981 252.125458,155.111694 253.378815,154.332672 
	C257.081451,152.031403 260.915131,149.940964 265.317749,147.468079 
	C276.618347,141.127518 287.298706,135.086945 298.229706,129.055115 
	C298.646393,129.083466 298.812408,129.103088 298.984192,129.583649 
	C298.989899,147.408401 298.989899,164.772217 298.989899,182.011688 
	C301.396240,181.810532 303.301147,181.651306 304.983856,181.743378 
	C301.138611,185.066620 297.319977,185.960876 293.158478,183.036636 
z"/>
<path fill="#2EA8DD" opacity="1.000000" stroke="none" 
	d="
M297.081238,16.203453 
	C301.147430,18.075670 305.213623,19.947889 309.721924,22.312397 
	C314.857269,25.225037 319.550537,27.645386 324.243805,30.065731 
	C330.439819,33.497055 336.635864,36.928383 343.074890,41.005325 
	C344.248108,42.686775 345.178314,43.722607 346.189453,44.848515 
	C342.872101,47.308014 339.815552,49.574146 336.759003,51.840279 
	C334.464630,53.224682 332.170258,54.609085 329.155273,55.996113 
	C323.867554,58.582317 319.216949,61.031330 314.762054,63.795734 
	C311.680908,65.707687 308.869934,68.055008 305.938202,70.207771 
	C304.632111,71.219131 303.326050,72.230499 301.771027,73.522781 
	C301.010437,73.508308 300.498810,73.212921 299.930420,72.508011 
	C299.583191,69.979309 299.052094,67.861397 299.041016,65.740768 
	C298.966125,51.426811 299.066650,37.111565 298.911102,22.798899 
	C298.893402,21.169146 297.638855,19.552832 296.974060,17.642242 
	C297.020599,16.970615 297.050934,16.587034 297.081238,16.203453 
z"/>
<path fill="#296EDD" opacity="1.000000" stroke="none" 
	d="
M286.958710,123.994278 
	C280.473114,120.007561 273.987488,116.020844 267.051880,111.580475 
	C262.829803,108.811577 258.956573,106.642265 255.325073,104.124306 
	C253.267868,102.697899 251.607239,100.699501 249.881470,98.944519 
	C249.994934,98.930305 250.195557,99.040131 250.572601,99.033157 
	C253.485535,97.930176 256.148926,97.058365 258.536102,95.700912 
	C271.728058,88.199440 284.852661,80.579582 298.258789,73.012627 
	C298.689209,73.037544 298.861206,73.050140 299.027985,73.380661 
	C299.024902,74.124062 299.027008,74.549530 298.876556,75.319748 
	C298.814545,77.588432 298.980377,79.512253 298.983643,81.436348 
	C299.006500,94.851418 298.874664,108.268341 299.074982,121.680458 
	C299.129608,125.339043 297.631195,126.377388 294.070557,126.116730 
	C291.468353,125.415466 289.213531,124.704880 286.958710,123.994278 
z"/>
<path fill="#FB6817" opacity="1.000000" stroke="none" 
	d="
M232.917114,157.029205 
	C219.504578,149.300964 206.048035,141.647034 192.728546,133.761627 
	C190.805481,132.623123 189.540939,130.372253 188.116272,128.022430 
	C188.829025,126.684372 189.397171,125.960052 189.965302,125.235718 
	C195.808197,121.810638 201.651108,118.385567 208.129150,114.886696 
	C215.894867,110.872238 223.025421,106.931580 230.480759,103.003357 
	C231.664749,103.020035 232.523972,103.024261 233.526215,103.472885 
	C233.617767,121.314980 233.566315,138.712677 233.393616,156.214767 
	C233.132492,156.491074 233.056244,156.687698 233.035706,156.964020 
	C233.027756,157.018997 232.917114,157.029205 232.917114,157.029205 
z"/>
<path fill="#2994DF" opacity="1.000000" stroke="none" 
	d="
M299.033203,73.062729 
	C298.861206,73.050140 298.689209,73.037544 298.047607,72.747437 
	C292.814728,69.536354 288.100647,66.519012 283.278137,63.686211 
	C272.470490,57.337677 261.608948,51.080917 250.966919,44.502762 
	C261.442871,38.137821 271.721191,32.056904 282.258362,25.882519 
	C282.698364,25.473547 282.879578,25.158045 283.060791,24.842548 
	C283.060791,24.842550 283.020447,24.490976 283.475433,24.289684 
	C288.272888,22.035690 292.615356,19.982985 296.957825,17.930285 
	C297.638855,19.552832 298.893402,21.169146 298.911102,22.798899 
	C299.066650,37.111565 298.966125,51.426811 299.041016,65.740768 
	C299.052094,67.861397 299.583191,69.979309 299.692993,72.550797 
	C299.512268,73.003120 299.033203,73.062729 299.033203,73.062729 
z"/>
<path fill="#FC8D17" opacity="1.000000" stroke="none" 
	d="
M184.027542,129.994690 
	C184.351196,131.226791 184.951096,132.457703 184.956451,133.691177 
	C185.021393,148.670029 185.055420,163.649796 184.913376,178.627579 
	C184.898804,180.164978 183.695267,181.691101 182.291626,183.383057 
	C174.680862,179.520035 167.858246,175.432083 160.934280,171.523651 
	C159.436691,170.678268 157.574707,170.478485 155.880569,169.981339 
	C153.777420,168.683029 151.674271,167.384720 149.179626,165.614594 
	C147.205795,163.987747 145.601135,162.861877 144.046249,161.671005 
	C141.634476,159.823883 139.256622,157.932465 137.248718,156.037704 
	C143.264862,153.001907 148.955261,150.091919 154.515686,146.951813 
	C164.394501,141.372955 174.194534,135.654648 184.027542,129.994690 
z"/>
<path fill="#2831DF" opacity="1.000000" stroke="none" 
	d="
M305.206055,181.492065 
	C303.301147,181.651306 301.396240,181.810532 298.989899,182.011688 
	C298.989899,164.772217 298.989899,147.408401 299.237030,129.544922 
	C299.654266,129.037292 299.824371,129.029327 300.053833,129.367676 
	C312.312897,136.827972 324.556213,143.868973 336.678406,151.112656 
	C339.360809,152.715515 341.615082,155.034866 343.898804,157.324738 
	C339.660797,160.569595 335.590485,163.514038 331.462402,166.451630 
	C331.404633,166.444778 331.311005,166.375687 331.016174,166.369965 
	C330.518188,166.679260 330.315033,166.994293 329.872192,167.547577 
	C323.864197,171.416534 318.095825,175.047272 312.327484,178.677994 
	C312.082123,178.766647 311.836761,178.855301 310.944458,179.150894 
	C309.357727,179.612381 308.417969,179.866913 307.112305,180.112091 
	C306.215637,180.494186 305.684814,180.885666 305.185547,181.326385 
	C305.217102,181.375610 305.206055,181.492065 305.206055,181.492065 
z"/>
<path fill="#EE2128" opacity="1.000000" stroke="none" 
	d="
M23.120985,43.251251 
	C23.120985,43.251251 23.465174,43.079628 23.986355,43.177429 
	C26.031351,42.989227 27.759298,43.071918 29.046793,42.359085 
	C39.672924,36.475788 50.233986,30.473782 60.756439,24.406593 
	C61.637882,23.898361 62.093201,22.651091 62.761860,21.759388 
	C62.777229,21.771601 62.814838,21.779881 63.187557,21.849468 
	C64.373970,21.228184 65.187660,20.537310 66.085327,19.755236 
	C66.169289,19.664036 66.416031,19.688354 66.740234,19.702473 
	C67.332390,19.406649 67.600327,19.096706 67.914047,18.886196 
	C67.959824,18.985626 67.840012,18.802338 68.198471,18.873756 
	C69.042328,18.961008 69.527725,18.976839 70.010834,19.422104 
	C70.338524,23.605759 70.880074,27.355822 70.953979,31.115078 
	C71.103302,38.710506 70.989258,46.310947 71.003838,53.909279 
	C71.009064,56.634270 71.656387,59.515202 70.979675,62.049690 
	C69.785851,66.520874 71.092171,69.027931 75.227798,70.451431 
	C73.997238,71.472740 72.963165,72.231201 71.690781,72.984406 
	C71.452477,72.979149 70.975723,72.964859 70.763550,72.702415 
	C69.928360,72.217300 69.252182,72.085869 68.690186,71.758446 
	C57.843391,65.438957 47.091835,58.949631 36.128780,52.839565 
	C32.360970,50.739639 28.071749,49.575256 24.010586,47.646873 
	C23.698151,46.512047 23.395857,45.713825 23.051716,44.638245 
	C23.046907,43.991005 23.083946,43.621128 23.120985,43.251251 
z"/>
<path fill="#3B4FC7" opacity="1.000000" stroke="none" 
	d="
M331.520142,166.458466 
	C335.590485,163.514038 339.660797,160.569595 344.287476,157.222748 
	C345.230988,155.650803 345.949677,154.482880 345.955231,153.311554 
	C346.030975,137.424927 346.029572,121.537720 345.966003,105.650978 
	C345.961090,104.429596 345.345764,103.210663 344.816986,101.719116 
	C343.533691,100.692047 342.503632,99.835266 341.352325,99.197235 
	C333.742432,94.979813 326.051880,90.905190 318.495575,86.594727 
	C311.932831,82.851067 305.512451,78.857903 299.029144,74.975006 
	C299.027008,74.549530 299.024902,74.124062 299.027985,73.380661 
	C299.033203,73.062729 299.512268,73.003120 299.749725,72.960327 
	C300.498810,73.212921 301.010437,73.508308 301.807831,73.870438 
	C311.573486,79.252342 321.093475,84.497627 330.518097,89.908997 
	C336.120178,93.125565 341.572205,96.603561 347.406006,100.507401 
	C347.730652,120.329666 347.740936,139.608551 347.751221,158.887436 
	C344.470551,160.832626 341.189941,162.777817 337.212585,164.760605 
	C334.850586,165.351624 333.185364,165.905029 331.520142,166.458466 
z"/>
<path fill="#FFFFFF" opacity="1.000000" stroke="none" 
	d="
M134.900970,156.046951 
	C134.600769,155.202286 134.038254,154.357635 134.038132,153.512939 
	C134.033066,118.146545 134.078308,82.780151 134.719238,47.250450 
	C135.321182,47.087151 135.775818,46.995220 135.840256,47.460373 
	C135.912918,49.414875 135.917908,50.904255 135.929855,52.393578 
	C136.057205,68.268791 136.185669,84.144005 136.183929,100.343681 
	C136.133255,101.118820 136.212509,101.569489 136.161713,102.471161 
	C135.983582,120.618073 135.935486,138.313995 135.639282,155.978851 
	C135.227753,155.980850 135.064362,156.013901 134.900970,156.046951 
z"/>
<path fill="#F4D7D4" opacity="1.000000" stroke="none" 
	d="
M22.706371,43.309639 
	C23.083946,43.621128 23.046907,43.991005 22.771021,44.955566 
	C22.466324,52.485294 22.311661,59.420883 22.354614,66.355255 
	C22.426142,77.903610 22.624317,89.451187 22.618134,101.445755 
	C22.486521,119.172836 22.393707,136.455124 22.680429,153.731110 
	C22.712921,155.688812 24.436680,158.257294 26.141478,159.430435 
	C31.583874,163.175537 37.386971,166.396454 43.022316,170.154022 
	C42.973415,170.710922 42.952980,170.933609 42.932549,171.156281 
	C38.088253,168.427399 33.514580,164.884979 28.335606,163.162186 
	C20.756666,160.641022 20.864063,155.425919 20.904800,149.083344 
	C21.119499,115.656342 20.983820,82.227173 21.057871,48.798954 
	C21.061882,46.987743 21.862148,45.178291 22.706371,43.309639 
z"/>
<path fill="#FEF8BA" opacity="1.000000" stroke="none" 
	d="
M134.877014,44.962341 
	C135.514572,43.853474 135.873245,42.266598 136.831558,41.707523 
	C150.890457,33.505611 164.981491,25.355618 179.171967,17.383900 
	C185.063095,14.074466 187.040863,15.428445 186.640259,22.610092 
	C185.926239,23.040388 185.564560,23.042574 185.089554,22.670757 
	C184.716019,20.933153 184.455826,19.569550 184.080475,17.602423 
	C168.036423,26.708654 152.675583,35.427113 136.995178,44.193748 
	C136.076080,44.482067 135.476547,44.722206 134.877014,44.962341 
z"/>
<path fill="#D6424A" opacity="1.000000" stroke="none" 
	d="
M62.746490,21.747173 
	C62.093201,22.651091 61.637882,23.898361 60.756439,24.406593 
	C50.233986,30.473782 39.672924,36.475788 29.046793,42.359085 
	C27.759298,43.071918 26.031351,42.989227 24.177895,43.160332 
	C35.467262,36.276497 47.086269,29.507565 59.289085,22.435884 
	C60.830753,22.004484 61.788624,21.875828 62.746490,21.747173 
z"/>
<path fill="#FEF8BA" opacity="1.000000" stroke="none" 
	d="
M189.529251,125.151703 
	C189.397171,125.960052 188.829025,126.684372 188.087494,127.644722 
	C187.132187,127.989540 186.350250,128.098328 185.238831,127.659798 
	C185.016571,111.062035 185.123779,95.011589 185.496490,78.954208 
	C186.116013,78.955330 186.470016,78.963394 186.824036,78.971458 
	C186.883072,93.029617 186.887039,107.088577 187.091553,121.144623 
	C187.110718,122.461739 188.395844,123.760437 189.529251,125.151703 
z"/>
<path fill="#FFFDFC" opacity="1.000000" stroke="none" 
	d="
M72.856468,132.001694 
	C72.899612,149.371872 72.942757,166.742050 72.624252,184.562180 
	C71.862892,184.994095 71.463181,184.976074 71.123505,184.644730 
	C71.247032,183.909714 71.310516,183.487991 71.542191,182.965576 
	C71.596161,182.554504 71.481926,182.244141 71.322830,181.623444 
	C71.306854,180.897095 71.335754,180.481094 71.533585,179.965179 
	C71.588287,179.554504 71.474052,179.243729 71.311493,178.471375 
	C71.323410,162.686081 71.383644,147.362366 71.679436,132.060242 
	C72.226440,132.027283 72.540268,132.000565 72.856468,132.001694 
z"/>
<path fill="#FFFFFF" opacity="1.000000" stroke="none" 
	d="
M248.959961,101.115707 
	C248.641037,100.442673 248.043701,99.769585 248.043839,99.096619 
	C248.047699,81.179466 248.113098,63.262314 248.551025,45.187874 
	C248.933990,45.030582 249.018753,45.071785 249.009232,45.518356 
	C249.247269,49.313347 249.494827,52.661758 249.800598,56.474514 
	C249.971054,70.972610 250.083313,85.006371 250.195557,99.040131 
	C250.195557,99.040131 249.994934,98.930305 249.661987,99.148956 
	C249.205994,99.950302 249.082962,100.533005 248.959961,101.115707 
z"/>
<path fill="#DFE1F9" opacity="1.000000" stroke="none" 
	d="
M287.088928,124.331787 
	C289.213531,124.704880 291.468353,125.415466 294.245880,126.412003 
	C295.838745,127.480751 296.908905,128.263550 297.979065,129.046356 
	C287.298706,135.086945 276.618347,141.127518 265.567383,147.226440 
	C270.813416,143.658020 276.388458,139.964478 282.060974,136.427292 
	C286.028534,133.953247 290.129333,131.692947 294.516144,129.135788 
	C291.718018,127.423050 289.468597,126.046173 287.088928,124.331787 
z"/>
<path fill="#D1F0F9" opacity="1.000000" stroke="none" 
	d="
M281.999542,25.975990 
	C271.721191,32.056904 261.442871,38.137821 250.771210,44.544788 
	C250.377899,44.870842 250.005966,45.020039 249.758759,45.025467 
	C249.511566,45.030891 249.018753,45.071785 249.018753,45.071785 
	C249.018753,45.071785 248.933990,45.030582 248.942291,44.984283 
	C251.700592,42.722588 254.243271,40.162823 257.240601,38.358208 
	C265.309845,33.499893 273.573090,28.963825 281.882935,24.869930 
	C282.004211,25.618681 282.001892,25.797335 281.999542,25.975990 
z"/>
<path fill="#FFFFE2" opacity="1.000000" stroke="none" 
	d="
M186.904510,78.511414 
	C186.470016,78.963394 186.116013,78.955330 185.424042,78.516457 
	C184.947723,76.026627 184.809326,73.967606 184.800980,71.956596 
	C184.931015,72.004608 185.206909,72.031540 185.458496,71.703720 
	C185.551483,62.593658 185.392883,53.811405 185.166077,44.563808 
	C185.151047,38.067753 185.204254,32.037048 185.397217,25.907562 
	C185.437424,25.536345 185.337845,25.263905 185.168732,24.670095 
	C185.133774,23.914072 185.168335,23.479416 185.202896,23.044760 
	C185.564560,23.042574 185.926239,23.040388 186.559204,23.036161 
	C186.882004,41.373207 186.933502,59.712292 186.904510,78.511414 
z"/>
<path fill="#FCE4BD" opacity="1.000000" stroke="none" 
	d="
M156.009598,170.314774 
	C157.574707,170.478485 159.436691,170.678268 160.934280,171.523651 
	C167.858246,175.432083 174.680862,179.520035 181.849228,183.543396 
	C182.894928,184.008011 183.631210,184.472855 184.694031,185.006851 
	C185.003143,188.850479 182.879547,186.483429 181.939728,185.937210 
	C173.296875,180.913986 164.728607,175.762405 156.009598,170.314774 
z"/>
<path fill="#D02228" opacity="1.000000" stroke="none" 
	d="
M108.206879,108.709076 
	C100.970543,112.823563 93.734192,116.938057 85.893921,121.260170 
	C84.967140,121.394547 84.644295,121.321297 84.349365,120.900612 
	C89.174995,117.574188 93.874847,114.419052 98.805817,111.679955 
	C101.937286,109.940460 105.412315,108.819435 108.787155,107.677803 
	C108.629654,108.192726 108.418266,108.450897 108.206879,108.709076 
z"/>
<path fill="#FAD8B1" opacity="1.000000" stroke="none" 
	d="
M233.514877,156.110367 
	C233.566315,138.712677 233.617767,121.314980 233.659393,103.189560 
	C233.642303,102.049774 233.635056,101.637711 233.627808,101.225639 
	C234.291473,102.112938 235.537354,103.003311 235.532684,103.887085 
	C235.442932,120.908234 235.271439,137.930023 234.899048,154.946915 
	C234.862244,156.627777 233.410934,158.277649 232.173279,159.874176 
	C232.060486,159.072495 232.390594,158.338531 232.818909,157.316895 
	C232.917114,157.029205 233.027756,157.018997 233.224792,156.916519 
	C233.666794,156.607864 233.697800,156.373306 233.514877,156.110367 
z"/>
<path fill="#D8E7FD" opacity="1.000000" stroke="none" 
	d="
M348.211243,158.832916 
	C347.740936,139.608551 347.730652,120.329666 347.744446,100.594284 
	C348.167694,100.514824 348.916748,100.892601 348.915924,101.268761 
	C348.874695,120.438728 348.769562,139.608551 348.211243,158.832916 
z"/>
<path fill="#FCDBB9" opacity="1.000000" stroke="none" 
	d="
M230.155991,102.990913 
	C223.025421,106.931580 215.894867,110.872238 208.498108,114.773750 
	C214.156860,110.652397 220.046463,106.516663 226.048889,102.551781 
	C226.851776,102.021439 228.225418,102.355194 229.636459,102.411301 
	C230.010773,102.686172 230.083374,102.838547 230.155991,102.990913 
z"/>
<path fill="#DBE0F9" opacity="1.000000" stroke="none" 
	d="
M331.462402,166.451599 
	C333.185364,165.905029 334.850586,165.351624 336.901672,164.874512 
	C329.788055,170.581604 321.902771,175.499130 312.570465,178.434509 
	C318.095825,175.047272 323.864197,171.416534 330.137024,167.483414 
	C330.864716,166.912567 331.087860,166.644135 331.311005,166.375702 
	C331.311005,166.375687 331.404633,166.444778 331.462402,166.451599 
z"/>
<path fill="#DCF7FC" opacity="1.000000" stroke="none" 
	d="
M306.319458,70.118423 
	C308.869934,68.055008 311.680908,65.707687 314.762054,63.795734 
	C319.216949,61.031330 323.867554,58.582317 328.805237,55.970810 
	C328.904510,56.685253 328.852142,57.816410 328.328674,58.111320 
	C321.157379,62.151402 313.921051,66.076050 306.319458,70.118423 
z"/>
<path fill="#F7CECE" opacity="1.000000" stroke="none" 
	d="
M102.977837,33.206203 
	C108.607132,36.465927 114.295204,39.633038 119.782990,43.115738 
	C120.392159,43.502331 119.859573,45.688004 119.387886,46.894451 
	C118.798058,46.491096 118.641853,46.255829 118.471916,45.667267 
	C117.686325,44.499825 116.879494,43.708897 116.038376,42.936707 
	C116.004089,42.955441 116.071526,42.932102 115.929718,42.656555 
	C115.209732,42.204967 114.631569,42.028931 114.044434,41.899502 
	C114.035469,41.946110 114.116920,41.897366 113.971497,41.608604 
	C113.244164,41.051861 112.662262,40.783875 111.956009,40.330093 
	C111.420799,40.044788 111.009949,39.945278 110.401360,39.536186 
	C108.509613,38.321301 106.815613,37.415993 104.947388,36.310135 
	C104.295967,35.888607 103.818756,35.667629 103.268158,35.244911 
	C102.978058,34.825817 102.881409,34.564117 102.919472,33.994858 
	C102.948692,33.556496 102.963264,33.381348 102.977837,33.206203 
z"/>
<path fill="#FBD7DA" opacity="1.000000" stroke="none" 
	d="
M71.929085,72.989655 
	C72.963165,72.231201 73.997238,71.472740 75.406517,70.430817 
	C75.781723,70.147362 75.985710,69.848648 76.244797,69.843102 
	C76.697273,69.576820 76.890663,69.316086 77.045380,69.037231 
	C77.006706,69.019112 77.048836,69.093422 77.335457,69.080933 
	C77.825150,68.775002 78.028221,68.481567 78.166847,68.177505 
	C78.102402,68.166878 78.139992,68.291977 78.495850,68.323219 
	C79.416954,67.943619 79.982208,67.532776 80.691933,67.130806 
	C80.836403,67.139671 80.975418,66.885742 81.287338,66.859451 
	C82.193459,66.647499 82.787651,66.461830 83.557236,66.482048 
	C83.851898,66.823174 83.971176,66.958397 84.090446,67.093628 
	C81.464844,69.047531 78.839241,71.001434 76.245659,72.931511 
	C78.234673,74.637398 80.353981,76.455025 82.315536,78.582397 
	C80.447083,78.251465 78.736374,77.610786 77.016953,76.983398 
	C77.008240,76.996689 77.033226,76.981155 76.940300,76.719940 
	C76.544937,76.285324 76.242508,76.111916 75.894173,75.827721 
	C75.848274,75.716927 75.610275,75.687088 75.400368,75.431870 
	C74.103333,74.447647 73.016212,73.718651 71.929085,72.989655 
z"/>
<path fill="#D02228" opacity="1.000000" stroke="none" 
	d="
M104.094208,91.015320 
	C107.319168,92.796410 110.544128,94.577507 114.041809,96.949295 
	C114.731987,97.945610 115.149452,98.351242 115.150146,98.826889 
	C108.742188,95.945885 102.733543,93.028740 96.797653,89.970375 
	C96.386246,89.758400 96.516273,88.495560 96.745438,87.759506 
	C99.428978,88.870178 101.761589,89.942749 104.094208,91.015320 
z"/>
<path fill="#F7DFDE" opacity="1.000000" stroke="none" 
	d="
M43.077297,171.478516 
	C42.952980,170.933609 42.973415,170.710922 43.381947,170.204987 
	C49.518097,173.270142 55.266155,176.618530 60.996208,180.276337 
	C60.972057,180.792297 60.965912,180.998840 60.959763,181.205383 
	C55.742893,178.429520 50.526539,175.652679 45.308544,172.878937 
	C44.617317,172.511505 43.917751,172.159760 43.077297,171.478516 
z"/>
<path fill="#FCDDDB" opacity="1.000000" stroke="none" 
	d="
M118.450668,46.043781 
	C118.641853,46.255829 118.798058,46.491096 118.998581,46.946495 
	C113.320175,50.438599 107.562485,53.733795 101.415588,56.815430 
	C101.019279,56.430050 101.012169,56.258236 101.263557,55.877831 
	C103.192451,54.488293 104.862839,53.307335 106.675339,52.149933 
	C106.817444,52.173492 106.975891,51.932888 107.248199,51.920330 
	C107.748276,51.656399 107.976051,51.405025 108.162659,51.179092 
	C108.121490,51.204529 108.201233,51.259369 108.523743,51.248314 
	C109.646812,50.581661 110.447388,49.926056 111.196747,49.300133 
	C111.145538,49.329811 111.263878,49.326881 111.593704,49.322678 
	C112.996231,48.589741 114.068932,47.861012 115.084549,47.116119 
	C115.027473,47.099964 115.104599,47.190125 115.420410,47.180244 
	C115.943863,47.134956 116.151505,47.099556 116.417969,47.052689 
	C116.476791,47.041229 116.688736,46.935204 117.103683,46.661880 
	C117.829308,46.273628 118.139992,46.158707 118.450668,46.043781 
z"/>
<path fill="#FCD4D6" opacity="1.000000" stroke="none" 
	d="
M101.005051,56.086418 
	C101.012169,56.258236 101.019279,56.430050 101.032677,56.859734 
	C95.639854,60.422733 90.240746,63.727867 84.466034,67.063309 
	C83.971176,66.958397 83.851898,66.823174 83.781525,66.272110 
	C84.416222,65.288116 85.002022,64.719948 85.701187,64.180817 
	C85.814545,64.209854 85.957756,64.024734 86.238144,63.990540 
	C86.736572,63.673916 86.954620,63.391483 87.116241,63.105438 
	C87.059807,63.101830 87.087463,63.211494 87.401184,63.217636 
	C88.189896,62.856541 88.664886,62.489296 89.097519,62.102005 
	C89.055153,62.081951 89.065727,62.175083 89.371185,62.156574 
	C90.143051,61.777752 90.609474,61.417442 91.036087,61.036640 
	C90.996277,61.016151 91.057030,61.082047 91.402039,61.037079 
	C94.330025,59.369198 96.913010,57.746288 99.645294,56.145889 
	C99.794609,56.168400 99.976486,55.927319 100.232971,55.971317 
	C100.661324,56.039013 100.833183,56.062714 101.005051,56.086418 
z"/>
<path fill="#FCD7DA" opacity="1.000000" stroke="none" 
	d="
M102.660469,33.043991 
	C102.963264,33.381348 102.948692,33.556496 102.565353,33.967083 
	C100.906708,33.691154 99.616837,33.179783 98.286339,32.673965 
	C98.245720,32.679527 98.259521,32.760357 98.172523,32.493553 
	C97.737190,32.124519 97.388863,32.022289 97.020531,31.957441 
	C97.000534,31.994825 97.062141,31.936625 96.881760,31.649357 
	C94.907677,30.455038 93.113976,29.547987 91.300064,28.649334 
	C91.279861,28.657734 91.256065,28.694466 91.117073,28.394337 
	C88.982994,26.752018 86.987900,25.409826 85.004799,23.776012 
	C85.022675,23.289902 85.028564,23.095413 85.034454,22.900923 
	C90.804001,26.227875 96.573555,29.554825 102.660469,33.043991 
z"/>
<path fill="#C4E3F4" opacity="1.000000" stroke="none" 
	d="
M248.961365,101.482010 
	C249.082962,100.533005 249.205994,99.950302 249.548508,99.163162 
	C251.607239,100.699501 253.267868,102.697899 255.325073,104.124306 
	C258.956573,106.642265 262.829803,108.811577 266.720337,111.419647 
	C262.733856,109.834358 258.552612,108.102478 254.555710,106.017220 
	C252.520401,104.955345 250.816483,103.258255 248.961365,101.482010 
z"/>
<path fill="#DADBF7" opacity="1.000000" stroke="none" 
	d="
M307.478180,180.121460 
	C308.417969,179.866913 309.357727,179.612381 310.562134,179.234650 
	C307.989075,184.596329 299.770294,188.130737 294.808350,185.880203 
	C294.102020,185.559845 293.727936,184.507050 293.179260,183.414948 
	C297.319977,185.960876 301.138611,185.066620 304.983856,181.743378 
	C305.206055,181.492065 305.217102,181.375610 305.527588,181.343079 
	C306.384766,180.914185 306.931458,180.517822 307.478180,180.121460 
z"/>
<path fill="#F7DCDA" opacity="1.000000" stroke="none" 
	d="
M115.566910,98.756874 
	C115.149452,98.351242 114.731987,97.945610 114.183273,97.278442 
	C115.189339,97.043404 116.560837,96.677910 117.410637,97.185616 
	C118.783150,98.005623 120.623459,99.309570 120.765160,100.576950 
	C120.915756,101.923920 119.666115,104.157280 118.415642,104.786163 
	C115.378075,106.313820 111.985405,107.135391 108.471329,108.475250 
	C108.418266,108.450897 108.629654,108.192726 109.014862,107.790314 
	C109.490280,107.291443 109.791878,106.936821 110.456390,106.588760 
	C111.934410,105.776611 113.049530,104.957901 114.109352,104.139969 
	C114.054062,104.140747 114.137566,104.213257 114.485794,104.172363 
	C116.254585,103.220665 117.675156,102.309875 119.754593,100.976646 
	C118.051735,100.106667 117.006447,99.572639 115.906143,98.907242 
	C115.851120,98.775879 115.566910,98.756874 115.566910,98.756874 
z"/>
<path fill="#FCECB4" opacity="1.000000" stroke="none" 
	d="
M134.943741,156.450470 
	C135.064362,156.013901 135.227753,155.980850 135.883972,155.983429 
	C136.376785,156.019089 136.864395,156.059830 136.864395,156.059830 
	C139.256622,157.932465 141.634476,159.823883 144.046249,161.671005 
	C145.601135,162.861877 147.205795,163.987747 148.862946,165.463196 
	C144.386383,163.765854 139.803192,161.813278 135.331787,159.631622 
	C134.873947,159.408218 135.085556,157.812759 134.943741,156.450470 
z"/>
<path fill="#D0EEF5" opacity="1.000000" stroke="none" 
	d="
M337.161804,51.929909 
	C339.815552,49.574146 342.872101,47.308014 346.189453,44.848515 
	C345.178314,43.722607 344.248108,42.686775 343.205017,41.347588 
	C345.137665,42.106804 347.183197,43.169373 349.228729,44.231945 
	C349.346252,44.861702 349.463806,45.491459 349.581360,46.121216 
	C345.575775,48.087326 341.570160,50.053432 337.161804,51.929909 
z"/>
<path fill="#F7D3D4" opacity="1.000000" stroke="none" 
	d="
M84.321442,121.248047 
	C84.644295,121.321297 84.967140,121.394547 85.530861,121.391586 
	C84.515236,122.744133 83.456810,124.441994 81.959717,125.543854 
	C79.116440,127.636528 76.022049,129.388031 72.944214,131.641449 
	C72.540268,132.000565 72.226440,132.027283 71.547470,131.709442 
	C71.212250,130.589645 71.244560,129.842255 71.537720,128.904999 
	C73.234344,127.841209 74.670128,126.967285 76.084435,126.068489 
	C76.062965,126.043625 76.038460,126.103836 76.321831,126.072723 
	C76.827812,125.760330 77.050430,125.479057 77.192490,125.187531 
	C77.111938,125.177277 77.154564,125.333984 77.496552,125.318985 
	C78.384460,124.908073 78.930374,124.512177 79.721252,124.127502 
	C80.337883,123.850136 80.709541,123.561539 81.405472,123.174835 
	C82.017914,122.745193 82.306076,122.413651 82.675415,122.147537 
	C82.756577,122.212959 82.930138,122.097427 83.223907,122.063354 
	C83.755554,121.741180 83.993439,121.453079 84.251404,121.188400 
	C84.271484,121.211830 84.321442,121.248047 84.321442,121.248047 
z"/>
<path fill="#DDDCF8" opacity="1.000000" stroke="none" 
	d="
M253.885590,161.254822 
	C259.345428,163.783554 264.949951,166.651993 270.770721,170.050064 
	C270.972595,170.763779 270.958221,170.947845 270.943878,171.131897 
	C265.306000,167.952774 259.668121,164.773651 253.885590,161.254822 
z"/>
<path fill="#EBE9FB" opacity="1.000000" stroke="none" 
	d="
M271.072327,171.457703 
	C270.958221,170.947845 270.972595,170.763779 270.992706,170.302841 
	C276.168793,173.219025 281.339172,176.412064 286.801910,179.777756 
	C286.495972,180.231796 285.646393,180.922928 285.337067,180.733185 
	C280.583496,177.817535 275.900299,174.787186 271.072327,171.457703 
z"/>
<path fill="#FBDEDE" opacity="1.000000" stroke="none" 
	d="
M104.069626,90.638931 
	C101.761589,89.942749 99.428978,88.870178 96.714417,87.772873 
	C96.332466,87.748146 96.277237,87.784927 96.157074,87.524757 
	C95.678230,87.156723 95.319534,87.048859 94.889633,86.862083 
	C94.818420,86.783173 94.614990,86.844879 94.416618,86.544495 
	C93.145523,85.829994 92.072800,85.415878 91.000046,85.000885 
	C91.000000,85.000000 90.998032,85.000023 90.886383,84.707390 
	C90.252510,84.149574 89.730286,83.884384 89.200623,83.595909 
	C89.193192,83.572617 89.218079,83.530029 89.194626,83.298180 
	C89.024811,82.786789 88.941895,82.489555 88.922417,82.174629 
	C93.963295,84.870605 99.004166,87.566582 104.069626,90.638931 
z"/>
<path fill="#FAD5D3" opacity="1.000000" stroke="none" 
	d="
M62.761860,21.759386 
	C61.788624,21.875828 60.830753,22.004484 59.512489,22.168468 
	C63.203320,18.211674 67.476059,14.674499 73.859161,15.902212 
	C74.034340,16.970205 74.040855,17.261435 73.660629,17.462772 
	C71.462593,17.849367 69.651306,18.325851 67.840012,18.802338 
	C67.840012,18.802338 67.959824,18.985626 67.616211,18.929882 
	C66.987076,19.145542 66.701553,19.416948 66.416031,19.688354 
	C66.416031,19.688354 66.169289,19.664036 65.757446,19.780022 
	C64.502022,20.523968 63.658428,21.151924 62.814838,21.779881 
	C62.814838,21.779881 62.777229,21.771601 62.761860,21.759386 
z"/>
<path fill="#C4ECF8" opacity="1.000000" stroke="none" 
	d="
M296.974060,17.642239 
	C292.615356,19.982985 288.272888,22.035690 283.553375,24.130835 
	C287.558838,21.471607 291.941376,18.769939 296.702576,16.135864 
	C297.050934,16.587034 297.020599,16.970615 296.974060,17.642239 
z"/>
<path fill="#DBF5FB" opacity="1.000000" stroke="none" 
	d="
M324.144226,29.689838 
	C319.550537,27.645386 314.857269,25.225037 310.021179,22.496674 
	C314.600464,24.563757 319.322571,26.938850 324.144226,29.689838 
z"/>
<path fill="#E8BCBB" opacity="1.000000" stroke="none" 
	d="
M61.081284,181.531464 
	C60.965912,180.998840 60.972057,180.792297 61.347713,180.307617 
	C64.832642,181.672318 67.948051,183.315170 71.063461,184.958038 
	C71.463181,184.976074 71.862892,184.994095 72.564102,185.030533 
	C71.661469,185.616943 70.107147,186.966721 69.316139,186.612427 
	C66.472328,185.338593 63.886269,183.489334 61.081284,181.531464 
z"/>
<path fill="#F9D1D0" opacity="1.000000" stroke="none" 
	d="
M84.912537,22.572134 
	C85.028564,23.095413 85.022675,23.289902 84.652557,23.728868 
	C83.603035,23.848516 82.917740,23.723688 82.196671,23.662163 
	C82.160889,23.725468 82.305359,23.708736 82.222862,23.436604 
	C81.790512,23.049740 81.440651,22.935009 81.078369,22.864391 
	C81.065941,22.908506 81.157112,22.899014 81.062912,22.634884 
	C80.627060,22.243715 80.285400,22.116676 79.870651,21.895885 
	C79.797554,21.802130 79.569733,21.870159 79.397110,21.583370 
	C78.263718,20.805380 77.302933,20.314175 76.189941,19.572275 
	C75.477943,18.784529 74.918175,18.247480 74.546875,17.501987 
	C74.861526,17.155052 74.987701,17.016560 75.113869,16.878069 
	C78.339455,18.666494 81.565033,20.454920 84.912537,22.572134 
z"/>
<path fill="#D02228" opacity="1.000000" stroke="none" 
	d="
M88.623260,81.990738 
	C88.941895,82.489555 89.024811,82.786789 88.828293,83.412750 
	C84.665497,81.496155 80.845581,79.233131 77.025673,76.970108 
	C78.736374,77.610786 80.447083,78.251465 82.505264,78.850746 
	C83.094048,78.866989 83.335350,78.924629 84.014801,79.326126 
	C84.896767,80.051735 85.340591,80.433479 85.784416,80.815216 
	C86.630981,81.145760 87.477547,81.476303 88.623260,81.990738 
z"/>
<path fill="#FB7B1C" opacity="1.000000" stroke="none" 
	d="
M230.480759,103.003357 
	C230.083374,102.838547 230.010773,102.686172 229.941544,102.281097 
	C230.951843,101.708832 231.958771,101.389275 233.296753,101.147682 
	C233.635056,101.637711 233.642303,102.049774 233.516388,102.745163 
	C232.523972,103.024261 231.664749,103.020035 230.480759,103.003357 
z"/>
<path fill="#FCECB4" opacity="1.000000" stroke="none" 
	d="
M134.618927,45.049431 
	C135.476547,44.722206 136.076080,44.482067 136.911652,44.494728 
	C137.107147,45.159454 137.066605,45.571381 136.848846,46.194054 
	C136.373032,46.601604 136.074432,46.798412 135.775818,46.995216 
	C135.775818,46.995220 135.321182,47.087151 135.095764,47.031502 
	C134.700500,46.362743 134.530670,45.749630 134.618927,45.049431 
z"/>
<path fill="#FBD7DA" opacity="1.000000" stroke="none" 
	d="
M85.692871,80.611542 
	C85.340591,80.433479 84.896767,80.051735 84.362053,79.459930 
	C84.714554,79.635872 85.157936,80.021873 85.692871,80.611542 
z"/>
<path fill="#C4ECF8" opacity="1.000000" stroke="none" 
	d="
M282.258362,25.882519 
	C282.001892,25.797335 282.004211,25.618681 282.020935,25.172384 
	C282.208649,24.939093 282.381989,24.973444 282.808075,24.925169 
	C282.879578,25.158045 282.698364,25.473547 282.258362,25.882519 
z"/>
<path fill="#F9D1D0" opacity="1.000000" stroke="none" 
	d="
M74.047363,17.552662 
	C74.040855,17.261435 74.034340,16.970205 74.056335,16.243025 
	C74.377281,15.994541 74.669739,16.182011 75.038025,16.623775 
	C74.987701,17.016560 74.861526,17.155052 74.480286,17.440582 
	C74.225220,17.587622 74.047363,17.552662 74.047363,17.552662 
z"/>
<path fill="#FDC819" opacity="1.000000" stroke="none" 
	d="
M135.840256,47.460369 
	C136.074432,46.798412 136.373032,46.601604 137.202759,46.237980 
	C145.945374,50.678997 154.129578,55.336361 162.376480,59.879944 
	C169.772141,63.954540 177.236755,67.903946 184.670959,71.908585 
	C184.809326,73.967606 184.947723,76.026627 185.158539,78.523399 
	C185.123779,95.011589 185.016571,111.062035 184.850281,127.581299 
	C184.791183,128.050125 184.412079,128.086990 184.210098,128.054779 
	C184.008118,128.022552 183.970917,127.945808 183.982239,127.482559 
	C183.996552,111.072594 184.026917,95.125809 183.985321,79.179199 
	C183.973312,74.576256 183.022858,74.047684 179.136017,76.308784 
	C170.853561,81.126923 162.665222,86.111748 154.302383,90.785019 
	C148.422318,94.070877 142.318008,96.955460 136.313828,100.019218 
	C136.185669,84.144005 136.057205,68.268791 135.929855,52.393578 
	C135.917908,50.904255 135.912918,49.414875 135.840256,47.460369 
z"/>
<path fill="#FEA114" opacity="1.000000" stroke="none" 
	d="
M137.248718,156.037704 
	C136.864395,156.059830 136.376785,156.019089 136.132080,156.014496 
	C135.935486,138.313995 135.983582,120.618073 136.515366,102.476517 
	C142.618622,105.115242 148.244568,108.187996 153.856339,111.286461 
	C163.899033,116.831413 173.933197,122.391846 183.970917,127.945808 
	C183.970917,127.945808 184.008118,128.022552 184.019928,128.064850 
	C184.030075,128.526199 184.028427,128.945251 184.027161,129.679489 
	C174.194534,135.654648 164.394501,141.372955 154.515686,146.951813 
	C148.955261,150.091919 143.264862,153.001907 137.248718,156.037704 
z"/>
<path fill="#285ADE" opacity="1.000000" stroke="none" 
	d="
M298.229706,129.055099 
	C296.908905,128.263550 295.838745,127.480751 294.593262,126.402679 
	C297.631195,126.377388 299.129608,125.339043 299.074982,121.680458 
	C298.874664,108.268341 299.006500,94.851418 298.983643,81.436348 
	C298.980377,79.512253 298.814545,77.588432 298.876556,75.319748 
	C305.512451,78.857903 311.932831,82.851067 318.495575,86.594727 
	C326.051880,90.905190 333.742432,94.979813 341.352325,99.197235 
	C342.503632,99.835266 343.533691,100.692047 344.655396,102.029053 
	C339.698547,105.473099 334.669373,108.273796 329.721497,111.211433 
	C319.789001,117.108536 309.900909,123.080368 299.994476,129.021362 
	C299.824371,129.029327 299.654266,129.037292 299.231323,129.083984 
	C298.812408,129.103088 298.646393,129.083466 298.229706,129.055099 
z"/>
<path fill="#2A83DE" opacity="1.000000" stroke="none" 
	d="
M250.005966,45.020039 
	C250.005966,45.020039 250.377899,44.870842 250.573608,44.828812 
	C261.608948,51.080917 272.470490,57.337677 283.278137,63.686211 
	C288.100647,66.519012 292.814728,69.536354 297.789185,72.735123 
	C284.852661,80.579582 271.728058,88.199440 258.536102,95.700912 
	C256.148926,97.058365 253.485535,97.930176 250.572601,99.033157 
	C250.083313,85.006371 249.971054,70.972610 249.929047,56.031731 
	C250.001541,51.756416 250.003754,48.388226 250.005966,45.020039 
z"/>
<path fill="#FB7B1C" opacity="1.000000" stroke="none" 
	d="
M233.393616,156.214767 
	C233.697800,156.373306 233.666794,156.607864 233.232742,156.861542 
	C233.056244,156.687698 233.132492,156.491074 233.393616,156.214767 
z"/>
<path fill="#2545E0" opacity="1.000000" stroke="none" 
	d="
M300.053833,129.367676 
	C309.900909,123.080368 319.789001,117.108536 329.721497,111.211433 
	C334.669373,108.273796 339.698547,105.473099 344.852570,102.300529 
	C345.345764,103.210663 345.961090,104.429596 345.966003,105.650978 
	C346.029572,121.537720 346.030975,137.424927 345.955231,153.311554 
	C345.949677,154.482880 345.230988,155.650803 344.455139,156.922302 
	C341.615082,155.034866 339.360809,152.715515 336.678406,151.112656 
	C324.556213,143.868973 312.312897,136.827972 300.053833,129.367676 
z"/>
<path fill="#2B21DB" opacity="1.000000" stroke="none" 
	d="
M307.112305,180.112091 
	C306.931458,180.517822 306.384766,180.914185 305.496002,181.293854 
	C305.684814,180.885666 306.215637,180.494186 307.112305,180.112091 
z"/>
<path fill="#3B4FC7" opacity="1.000000" stroke="none" 
	d="
M331.016174,166.369965 
	C331.087860,166.644135 330.864716,166.912567 330.376709,167.245178 
	C330.315033,166.994293 330.518188,166.679260 331.016174,166.369965 
z"/>
<path fill="#D02228" opacity="1.000000" stroke="none" 
	d="
M76.105904,126.093353 
	C74.670128,126.967285 73.234344,127.841209 71.218994,128.874557 
	C70.426491,129.020309 70.213554,129.006638 69.845123,128.687897 
	C55.748386,120.103790 41.823189,111.797333 27.833195,103.601486 
	C26.794945,102.993240 25.291275,103.179459 24.002428,102.663773 
	C23.998611,101.887794 23.996338,101.444382 23.995541,100.666412 
	C23.999481,99.885704 24.001947,99.439545 24.381447,98.990433 
	C27.603657,97.713341 30.579048,96.664612 33.264187,95.113441 
	C37.534355,92.646629 41.524010,89.695175 45.787884,87.216301 
	C54.127064,82.368179 62.573620,77.704750 70.975723,72.964859 
	C70.975723,72.964859 71.452477,72.979149 71.690781,72.984406 
	C73.016212,73.718651 74.103333,74.447647 75.010788,75.604645 
	C72.010117,77.076195 70.886017,78.932037 70.927589,82.093010 
	C71.097496,95.013596 71.119293,107.939507 70.926369,120.859436 
	C70.867729,124.786964 72.313881,126.388504 76.105904,126.093353 
z"/>
<path fill="#E01D25" opacity="1.000000" stroke="none" 
	d="
M70.763550,72.702415 
	C62.573620,77.704750 54.127064,82.368179 45.787884,87.216301 
	C41.524010,89.695175 37.534355,92.646629 33.264187,95.113441 
	C30.579048,96.664612 27.603657,97.713341 24.380709,98.522522 
	C24.008867,81.366211 24.014797,64.674843 24.020727,47.983482 
	C28.071749,49.575256 32.360970,50.739639 36.128780,52.839565 
	C47.091835,58.949631 57.843391,65.438957 68.690186,71.758446 
	C69.252182,72.085869 69.928360,72.217300 70.763550,72.702415 
z"/>
<path fill="#FD1C23" opacity="1.000000" stroke="none" 
	d="
M79.569733,21.870159 
	C79.569733,21.870159 79.797554,21.802130 80.006409,22.126911 
	C80.529213,22.600800 80.843163,22.749907 81.157112,22.899014 
	C81.157112,22.899014 81.065941,22.908506 81.173004,23.134489 
	C81.621834,23.476561 81.963600,23.592648 82.305359,23.708736 
	C82.305359,23.708736 82.160889,23.725468 82.264084,24.023418 
	C85.330215,25.779066 88.293137,27.236765 91.256065,28.694466 
	C91.256065,28.694466 91.279861,28.657734 91.224533,29.052895 
	C93.133514,30.277580 95.097832,31.107101 97.062141,31.936625 
	C97.062141,31.936625 97.000534,31.994825 97.133682,32.206707 
	C97.597733,32.532509 97.928627,32.646435 98.259521,32.760357 
	C98.259521,32.760357 98.245720,32.679527 98.201500,33.048191 
	C99.213081,35.810543 100.313293,38.090782 103.341553,35.446655 
	C103.818756,35.667629 104.295967,35.888607 104.947693,36.720444 
	C106.947845,38.169464 108.773468,39.007614 110.599098,39.845764 
	C111.009949,39.945278 111.420799,40.044788 112.050468,40.669975 
	C112.885162,41.429554 113.501045,41.663460 114.116920,41.897369 
	C114.116920,41.897366 114.035469,41.946110 114.181190,42.184170 
	C114.908447,42.592186 115.489990,42.762146 116.071526,42.932102 
	C116.071526,42.932102 116.004089,42.955441 116.008659,43.317070 
	C115.991257,44.440472 115.969284,45.202240 115.729782,46.107986 
	C115.376373,46.564686 115.240486,46.877403 115.104599,47.190125 
	C115.104599,47.190125 115.027473,47.099964 114.683685,47.067863 
	C113.314552,47.799473 112.289215,48.563179 111.263878,49.326881 
	C111.263878,49.326881 111.145538,49.329811 110.810974,49.212166 
	C109.718018,49.816139 108.959625,50.537758 108.201233,51.259369 
	C108.201233,51.259369 108.121490,51.204529 107.903961,51.207489 
	C107.449577,51.451260 107.212738,51.692074 106.975891,51.932888 
	C106.975891,51.932888 106.817444,52.173492 106.256363,52.114410 
	C102.477814,51.409393 101.027946,53.374138 99.976486,55.927319 
	C99.976486,55.927319 99.794609,56.168400 99.211311,56.110802 
	C95.199593,56.367352 91.659332,56.513142 91.057030,61.082047 
	C91.057030,61.082047 90.996277,61.016151 90.717354,61.035503 
	C89.980865,61.428265 89.523293,61.801674 89.065727,62.175083 
	C89.065727,62.175083 89.055153,62.081951 88.770065,62.079704 
	C88.019135,62.455467 87.553299,62.833481 87.087463,63.211494 
	C87.087463,63.211494 87.059807,63.101830 86.852463,63.162674 
	C86.415993,63.490593 86.186874,63.757668 85.957756,64.024734 
	C85.957756,64.024734 85.814545,64.209854 85.309525,64.141281 
	C83.528137,65.010384 82.251778,65.948059 80.975418,66.885742 
	C80.975418,66.885742 80.836403,67.139671 80.312744,67.112526 
	C79.239388,67.487579 78.689690,67.889778 78.139992,68.291977 
	C78.139992,68.291977 78.102402,68.166878 77.893661,68.207962 
	C77.472900,68.530502 77.260872,68.811966 77.048836,69.093422 
	C77.048836,69.093422 77.006706,69.019112 76.815826,69.095505 
	C76.328392,69.318611 76.115311,69.544197 75.985710,69.848648 
	C75.985710,69.848648 75.781723,70.147362 75.603004,70.167969 
	C71.092171,69.027931 69.785851,66.520874 70.979675,62.049690 
	C71.656387,59.515202 71.009064,56.634270 71.003838,53.909279 
	C70.989258,46.310947 71.103302,38.710506 70.953979,31.115078 
	C70.880074,27.355822 70.338524,23.605759 70.349243,19.406387 
	C71.475937,19.281084 72.261948,19.600933 73.039787,20.301132 
	C74.475182,25.124874 77.553772,20.575109 79.569733,21.870159 
M84.390678,59.203312 
	C84.785309,59.207539 85.179947,59.211765 85.574570,59.215992 
	C85.576057,59.052277 85.588531,58.746265 85.577454,58.745411 
	C85.184723,58.715092 84.789772,58.713379 84.390678,59.203312 
z"/>
<path fill="#CA252F" opacity="1.000000" stroke="none" 
	d="
M24.010586,47.646873 
	C24.014797,64.674843 24.008867,81.366211 24.003675,98.525482 
	C24.001947,99.439545 23.999481,99.885704 23.791191,100.668335 
	C23.313166,101.021988 23.041100,101.020088 22.769165,100.999092 
	C22.624317,89.451187 22.426142,77.903610 22.354614,66.355255 
	C22.311661,59.420883 22.466324,52.485294 22.812866,45.232925 
	C23.395857,45.713825 23.698151,46.512047 24.010586,47.646873 
z"/>
<path fill="#D6424A" opacity="1.000000" stroke="none" 
	d="
M73.047958,19.920784 
	C72.261948,19.600933 71.475937,19.281084 70.351524,18.976952 
	C69.527725,18.976839 69.042328,18.961008 68.198471,18.873756 
	C69.651306,18.325851 71.462593,17.849367 73.660629,17.462772 
	C74.047363,17.552662 74.225220,17.587622 74.291809,17.649027 
	C74.918175,18.247480 75.477943,18.784529 75.778542,19.630283 
	C74.695564,19.932919 73.871758,19.926851 73.047958,19.920784 
z"/>
<path fill="#D6424A" opacity="1.000000" stroke="none" 
	d="
M63.187557,21.849468 
	C63.658428,21.151924 64.502022,20.523968 65.673485,19.871223 
	C65.187660,20.537310 64.373970,21.228184 63.187557,21.849468 
z"/>
<path fill="#D6424A" opacity="1.000000" stroke="none" 
	d="
M66.740234,19.702473 
	C66.701553,19.416948 66.987076,19.145542 67.570435,18.830452 
	C67.600327,19.096706 67.332390,19.406649 66.740234,19.702473 
z"/>
<path fill="#FDB415" opacity="1.000000" stroke="none" 
	d="
M183.982239,127.482559 
	C173.933197,122.391846 163.899033,116.831413 153.856339,111.286461 
	C148.244568,108.187996 142.618622,105.115242 136.645416,102.025528 
	C136.212509,101.569489 136.133255,101.118820 136.183929,100.343681 
	C142.318008,96.955460 148.422318,94.070877 154.302383,90.785019 
	C162.665222,86.111748 170.853561,81.126923 179.136017,76.308784 
	C183.022858,74.047684 183.973312,74.576256 183.985321,79.179199 
	C184.026917,95.125809 183.996552,111.072594 183.982239,127.482559 
z"/>
<path fill="#B32027" opacity="1.000000" stroke="none" 
	d="
M22.618134,101.445755 
	C23.041100,101.020088 23.313166,101.021988 23.789715,101.002884 
	C23.996338,101.444382 23.998611,101.887794 24.000095,103.132843 
	C23.999306,121.213585 23.999306,138.492691 23.999306,156.717133 
	C29.823036,153.494217 34.403923,151.058273 38.887794,148.455215 
	C46.218769,144.199326 53.534073,139.912079 60.759262,135.480347 
	C63.961391,133.516266 66.927406,131.167236 70.000610,128.992966 
	C70.213554,129.006638 70.426491,129.020309 70.958160,129.064423 
	C71.244560,129.842255 71.212250,130.589645 71.311905,131.687836 
	C71.383644,147.362366 71.323410,162.686081 71.206177,178.754883 
	C71.221001,179.688354 71.292824,179.876724 71.364655,180.065079 
	C71.335754,180.481094 71.306854,180.897095 71.214096,181.907196 
	C71.224823,182.689621 71.299408,182.877945 71.374001,183.066284 
	C71.310516,183.487991 71.247032,183.909714 71.123505,184.644730 
	C67.948051,183.315170 64.832642,181.672318 61.365723,179.998184 
	C55.266155,176.618530 49.518097,173.270142 43.410408,169.870789 
	C37.386971,166.396454 31.583874,163.175537 26.141478,159.430435 
	C24.436680,158.257294 22.712921,155.688812 22.680429,153.731110 
	C22.393707,136.455124 22.486521,119.172836 22.618134,101.445755 
z"/>
<path fill="#FDDE1B" opacity="1.000000" stroke="none" 
	d="
M184.800995,71.956596 
	C177.236755,67.903946 169.772141,63.954540 162.376480,59.879944 
	C154.129578,55.336361 145.945374,50.678997 137.379974,46.027229 
	C137.066605,45.571381 137.107147,45.159454 137.231216,44.446552 
	C152.675583,35.427113 168.036423,26.708654 184.080475,17.602423 
	C184.455826,19.569550 184.716019,20.933153 185.089554,22.670757 
	C185.168335,23.479416 185.133774,23.914072 185.092926,24.925379 
	C185.143570,25.670134 185.200516,25.838236 185.257446,26.006340 
	C185.204254,32.037048 185.151047,38.067753 185.046539,45.016190 
	C185.065796,54.633129 185.136353,63.332333 185.206909,72.031540 
	C185.206909,72.031540 184.931015,72.004608 184.800995,71.956596 
z"/>
<path fill="#E8BCBB" opacity="1.000000" stroke="none" 
	d="
M71.533585,179.965179 
	C71.292824,179.876724 71.221001,179.688354 71.254494,179.216461 
	C71.474052,179.243729 71.588287,179.554504 71.533585,179.965179 
z"/>
<path fill="#E8BCBB" opacity="1.000000" stroke="none" 
	d="
M71.542191,182.965576 
	C71.299408,182.877945 71.224823,182.689621 71.258965,182.217529 
	C71.481926,182.244141 71.596161,182.554504 71.542191,182.965576 
z"/>
<path fill="#C4E3F4" opacity="1.000000" stroke="none" 
	d="
M249.758759,45.025467 
	C250.003754,48.388226 250.001541,51.756416 249.870850,55.567390 
	C249.494827,52.661758 249.247269,49.313347 249.009232,45.518356 
	C249.018753,45.071785 249.511566,45.030891 249.758759,45.025467 
z"/>
<path fill="#FEF8BA" opacity="1.000000" stroke="none" 
	d="
M185.458496,71.703720 
	C185.136353,63.332333 185.065796,54.633129 185.114777,45.481537 
	C185.392883,53.811405 185.551483,62.593658 185.458496,71.703720 
z"/>
<path fill="#FEF8BA" opacity="1.000000" stroke="none" 
	d="
M185.397217,25.907562 
	C185.200516,25.838236 185.143570,25.670134 185.162445,25.246746 
	C185.337845,25.263905 185.437424,25.536345 185.397217,25.907562 
z"/>
<path fill="#DF1E26" opacity="1.000000" stroke="none" 
	d="
M76.084435,126.068489 
	C72.313881,126.388504 70.867729,124.786964 70.926369,120.859436 
	C71.119293,107.939507 71.097496,95.013596 70.927589,82.093010 
	C70.886017,78.932037 72.010117,77.076195 75.220703,75.859863 
	C75.610275,75.687088 75.848274,75.716927 76.014557,76.061447 
	C76.464973,76.597702 76.749100,76.789429 77.033226,76.981155 
	C77.033226,76.981155 77.008240,76.996689 77.016953,76.983398 
	C80.845581,79.233131 84.665497,81.496155 88.851746,83.644608 
	C89.218079,83.530029 89.193192,83.572617 89.253586,83.917831 
	C89.875336,84.508705 90.436684,84.754364 90.998032,85.000023 
	C90.998032,85.000023 91.000000,85.000000 91.075920,85.383438 
	C92.306221,86.126213 93.460609,86.485550 94.614990,86.844879 
	C94.614990,86.844879 94.818420,86.783173 95.033730,87.104187 
	C95.591766,87.545113 95.934502,87.665024 96.277237,87.784927 
	C96.277237,87.784927 96.332466,87.748146 96.363495,87.734779 
	C96.516273,88.495560 96.386246,89.758400 96.797653,89.970375 
	C102.733543,93.028740 108.742188,95.945885 115.150146,98.826889 
	C115.566910,98.756874 115.851120,98.775879 115.907890,99.269653 
	C115.355629,101.246704 114.746597,102.729980 114.137566,104.213257 
	C114.137566,104.213257 114.054062,104.140747 113.718620,104.095825 
	C112.286613,104.894676 111.190041,105.738434 110.093475,106.582199 
	C109.791878,106.936821 109.490280,107.291443 108.960983,107.533562 
	C105.412315,108.819435 101.937286,109.940460 98.805817,111.679955 
	C93.874847,114.419052 89.174995,117.574188 84.349365,120.900612 
	C84.321442,121.248047 84.271484,121.211830 83.969254,121.234802 
	C83.421387,121.537659 83.175758,121.817543 82.930138,122.097427 
	C82.930138,122.097427 82.756577,122.212959 82.335556,122.221512 
	C81.636749,122.577690 81.358978,122.925316 81.081207,123.272934 
	C80.709541,123.561539 80.337883,123.850136 79.346939,124.112808 
	C78.203293,124.502586 77.678932,124.918289 77.154564,125.333984 
	C77.154564,125.333984 77.111938,125.177277 76.913376,125.219177 
	C76.489349,125.541992 76.263901,125.822914 76.038452,126.103836 
	C76.038460,126.103836 76.062965,126.043625 76.084435,126.068489 
z"/>
<path fill="#EE2128" opacity="1.000000" stroke="none" 
	d="
M103.268158,35.244911 
	C100.313293,38.090782 99.213081,35.810543 98.242119,33.042633 
	C99.616837,33.179783 100.906708,33.691154 102.550705,34.230301 
	C102.881409,34.564117 102.978058,34.825817 103.268158,35.244911 
z"/>
<path fill="#EE2128" opacity="1.000000" stroke="none" 
	d="
M110.401360,39.536186 
	C108.773468,39.007614 106.947845,38.169464 105.121910,36.920998 
	C106.815613,37.415993 108.509613,38.321301 110.401360,39.536186 
z"/>
<path fill="#EE2128" opacity="1.000000" stroke="none" 
	d="
M115.947311,45.964008 
	C115.969284,45.202240 115.991257,44.440472 116.042938,43.298336 
	C116.879494,43.708897 117.686325,44.499825 118.471916,45.667267 
	C118.139992,46.158707 117.829308,46.273628 117.095627,46.546677 
	C116.672630,46.704800 116.496483,46.557079 116.360519,46.407581 
	C116.224548,46.258083 115.947311,45.964008 115.947311,45.964008 
z"/>
<path fill="#EE2128" opacity="1.000000" stroke="none" 
	d="
M113.971497,41.608608 
	C113.501045,41.663460 112.885162,41.429554 112.174820,40.855766 
	C112.662262,40.783875 113.244164,41.051861 113.971497,41.608608 
z"/>
<path fill="#EE2128" opacity="1.000000" stroke="none" 
	d="
M115.929718,42.656555 
	C115.489990,42.762146 114.908447,42.592186 114.190155,42.137562 
	C114.631569,42.028931 115.209732,42.204967 115.929718,42.656555 
z"/>
<path fill="#EE2128" opacity="1.000000" stroke="none" 
	d="
M81.287338,66.859451 
	C82.251778,65.948059 83.528137,65.010384 85.196159,64.112244 
	C85.002022,64.719948 84.416222,65.288116 83.606133,66.066223 
	C82.787651,66.461830 82.193459,66.647499 81.287338,66.859451 
z"/>
<path fill="#EE2128" opacity="1.000000" stroke="none" 
	d="
M78.495850,68.323219 
	C78.689690,67.889778 79.239388,67.487579 80.168274,67.103661 
	C79.982208,67.532776 79.416954,67.943619 78.495850,68.323219 
z"/>
<path fill="#D02228" opacity="1.000000" stroke="none" 
	d="
M76.940300,76.719940 
	C76.749100,76.789429 76.464973,76.597702 76.060455,76.172241 
	C76.242508,76.111916 76.544937,76.285324 76.940300,76.719940 
z"/>
<path fill="#EE2128" opacity="1.000000" stroke="none" 
	d="
M76.244797,69.843102 
	C76.115311,69.544197 76.328392,69.318611 76.854507,69.113617 
	C76.890663,69.316086 76.697273,69.576820 76.244797,69.843102 
z"/>
<path fill="#EE2128" opacity="1.000000" stroke="none" 
	d="
M77.335457,69.080933 
	C77.260872,68.811966 77.472900,68.530502 77.958115,68.218582 
	C78.028221,68.481567 77.825150,68.775002 77.335457,69.080933 
z"/>
<path fill="#EE2128" opacity="1.000000" stroke="none" 
	d="
M100.232971,55.971317 
	C101.027946,53.374138 102.477814,51.409393 106.114258,52.090851 
	C104.862839,53.307335 103.192451,54.488293 101.263557,55.877831 
	C100.833183,56.062714 100.661324,56.039013 100.232971,55.971317 
z"/>
<path fill="#EE2128" opacity="1.000000" stroke="none" 
	d="
M111.593704,49.322678 
	C112.289215,48.563179 113.314552,47.799473 114.740753,47.084023 
	C114.068932,47.861012 112.996231,48.589741 111.593704,49.322678 
z"/>
<path fill="#EE2128" opacity="1.000000" stroke="none" 
	d="
M108.523743,51.248318 
	C108.959625,50.537758 109.718018,49.816139 110.862183,49.182487 
	C110.447388,49.926056 109.646812,50.581661 108.523743,51.248318 
z"/>
<path fill="#EE2128" opacity="1.000000" stroke="none" 
	d="
M115.420410,47.180244 
	C115.240486,46.877403 115.376373,46.564686 115.729782,46.107986 
	C115.947311,45.964008 116.224548,46.258083 116.308121,46.529320 
	C116.391685,46.800552 116.359146,47.064152 116.359146,47.064152 
	C116.151505,47.099556 115.943863,47.134956 115.420410,47.180244 
z"/>
<path fill="#F7CECE" opacity="1.000000" stroke="none" 
	d="
M116.417969,47.052689 
	C116.359146,47.064152 116.391685,46.800552 116.444084,46.678818 
	C116.496483,46.557079 116.672630,46.704800 116.680679,46.820000 
	C116.688736,46.935204 116.476791,47.041229 116.417969,47.052689 
z"/>
<path fill="#EE2128" opacity="1.000000" stroke="none" 
	d="
M107.248199,51.920330 
	C107.212738,51.692074 107.449577,51.451260 107.945122,51.182053 
	C107.976051,51.405025 107.748276,51.656399 107.248199,51.920330 
z"/>
<path fill="#EE2128" opacity="1.000000" stroke="none" 
	d="
M91.402039,61.037079 
	C91.659332,56.513142 95.199593,56.367352 99.061996,56.088287 
	C96.913010,57.746288 94.330025,59.369198 91.402039,61.037079 
z"/>
<path fill="#EE2128" opacity="1.000000" stroke="none" 
	d="
M89.371185,62.156574 
	C89.523293,61.801674 89.980865,61.428265 90.757156,61.055992 
	C90.609474,61.417442 90.143051,61.777752 89.371185,62.156574 
z"/>
<path fill="#EE2128" opacity="1.000000" stroke="none" 
	d="
M87.401184,63.217636 
	C87.553299,62.833481 88.019135,62.455467 88.812424,62.099754 
	C88.664886,62.489296 88.189896,62.856541 87.401184,63.217636 
z"/>
<path fill="#EE2128" opacity="1.000000" stroke="none" 
	d="
M86.238144,63.990540 
	C86.186874,63.757668 86.415993,63.490593 86.908890,63.166286 
	C86.954620,63.391483 86.736572,63.673916 86.238144,63.990540 
z"/>
<path fill="#EE2128" opacity="1.000000" stroke="none" 
	d="
M91.117073,28.394337 
	C88.293137,27.236765 85.330215,25.779066 82.299866,23.960114 
	C82.917740,23.723688 83.603035,23.848516 84.640564,24.020489 
	C86.987900,25.409826 88.982994,26.752018 91.117073,28.394337 
z"/>
<path fill="#EE2128" opacity="1.000000" stroke="none" 
	d="
M96.881760,31.649357 
	C95.097832,31.107101 93.133514,30.277580 91.244736,29.044495 
	C93.113976,29.547987 94.907677,30.455038 96.881760,31.649357 
z"/>
<path fill="#EE2128" opacity="1.000000" stroke="none" 
	d="
M98.172523,32.493553 
	C97.928627,32.646435 97.597733,32.532509 97.153687,32.169323 
	C97.388863,32.022289 97.737190,32.124519 98.172523,32.493553 
z"/>
<path fill="#D02228" opacity="1.000000" stroke="none" 
	d="
M114.485794,104.172363 
	C114.746597,102.729980 115.355629,101.246704 115.962906,99.401016 
	C117.006447,99.572639 118.051735,100.106667 119.754593,100.976646 
	C117.675156,102.309875 116.254585,103.220665 114.485794,104.172363 
z"/>
<path fill="#D02228" opacity="1.000000" stroke="none" 
	d="
M110.456390,106.588760 
	C111.190041,105.738434 112.286613,104.894676 113.773911,104.095047 
	C113.049530,104.957901 111.934410,105.776611 110.456390,106.588760 
z"/>
<path fill="#D02228" opacity="1.000000" stroke="none" 
	d="
M77.496552,125.318985 
	C77.678932,124.918289 78.203293,124.502586 79.101974,124.101585 
	C78.930374,124.512177 78.384460,124.908073 77.496552,125.318985 
z"/>
<path fill="#D02228" opacity="1.000000" stroke="none" 
	d="
M76.321823,126.072716 
	C76.263901,125.822914 76.489349,125.541992 76.993927,125.229431 
	C77.050430,125.479057 76.827812,125.760330 76.321823,126.072716 
z"/>
<path fill="#D02228" opacity="1.000000" stroke="none" 
	d="
M81.405479,123.174835 
	C81.358978,122.925316 81.636749,122.577690 82.254387,122.156090 
	C82.306076,122.413651 82.017914,122.745193 81.405479,123.174835 
z"/>
<path fill="#D02228" opacity="1.000000" stroke="none" 
	d="
M83.223907,122.063354 
	C83.175758,121.817543 83.421387,121.537659 83.949173,121.211380 
	C83.993439,121.453079 83.755554,121.741180 83.223907,122.063354 
z"/>
<path fill="#D02228" opacity="1.000000" stroke="none" 
	d="
M94.416618,86.544495 
	C93.460609,86.485550 92.306221,86.126213 91.075958,85.384323 
	C92.072800,85.415878 93.145523,85.829994 94.416618,86.544495 
z"/>
<path fill="#D02228" opacity="1.000000" stroke="none" 
	d="
M90.886383,84.707390 
	C90.436684,84.754364 89.875336,84.508705 89.261017,83.941124 
	C89.730286,83.884384 90.252510,84.149574 90.886383,84.707390 
z"/>
<path fill="#D02228" opacity="1.000000" stroke="none" 
	d="
M96.157074,87.524765 
	C95.934502,87.665024 95.591766,87.545113 95.104942,87.183098 
	C95.319534,87.048859 95.678230,87.156723 96.157074,87.524765 
z"/>
<path fill="#EE2128" opacity="1.000000" stroke="none" 
	d="
M73.039787,20.301132 
	C73.871758,19.926851 74.695564,19.932919 75.930756,19.880978 
	C77.302933,20.314175 78.263718,20.805380 79.397110,21.583370 
	C77.553772,20.575109 74.475182,25.124874 73.039787,20.301132 
z"/>
<path fill="#EE2128" opacity="1.000000" stroke="none" 
	d="
M81.062912,22.634884 
	C80.843163,22.749907 80.529213,22.600800 80.079498,22.220665 
	C80.285400,22.116676 80.627060,22.243715 81.062912,22.634884 
z"/>
<path fill="#EE2128" opacity="1.000000" stroke="none" 
	d="
M82.222862,23.436604 
	C81.963600,23.592648 81.621834,23.476561 81.185440,23.090374 
	C81.440651,22.935009 81.790512,23.049740 82.222862,23.436604 
z"/>
<path fill="#C21D24" opacity="1.000000" stroke="none" 
	d="
M69.845123,128.687897 
	C66.927406,131.167236 63.961391,133.516266 60.759262,135.480347 
	C53.534073,139.912079 46.218769,144.199326 38.887794,148.455215 
	C34.403923,151.058273 29.823036,153.494217 23.999306,156.717133 
	C23.999306,138.492691 23.999306,121.213585 24.001638,103.465408 
	C25.291275,103.179459 26.794945,102.993240 27.833195,103.601486 
	C41.823189,111.797333 55.748386,120.103790 69.845123,128.687897 
z"/>
<path fill="#EE2128" opacity="1.000000" stroke="none" 
	d="
M84.392914,58.955482 
	C84.789772,58.713379 85.184723,58.715092 85.577454,58.745411 
	C85.588531,58.746265 85.576057,59.052277 85.574570,59.215992 
	C85.179947,59.211765 84.785309,59.207539 84.392914,58.955482 
z"/>
</svg>